<svg xmlns="http://www.w3.org/2000/svg" width="240" height="240"><g fill="none" fill-rule="evenodd"><path d="M0 240h240V0H0z"/><path fill="rgb(255, 134, 130)" d="M120 85h3.478c0-16.684 19.214-35 38.122-35 25.465 0 38.4 19.861 38.4 43.333C200 152.067 120 190 120 190s-23.01-10.91-44.35-30.09C76 160 89 52 88.96 51.807 103.848 56.824 116.521 71.45 116.521 85H120z"/><path stroke="#000" stroke-width="2" d="M120 85h3.478c0-16.684 19.214-35 38.122-35 25.465 0 38.4 19.861 38.4 43.333C200 152.067 120 190 120 190s-80-37.933-80-96.667C40 69.861 52.935 50 78.4 50c18.908 0 38.122 18.316 38.122 35H120z"/></g>
</svg>