<svg width="23.000000" height="21.000000" viewBox="0 0 23 21" fill="none" xmlns="http://www.w3.org/2000/svg" xmlns:xlink="http://www.w3.org/1999/xlink">
	<defs/>
	<path id="Vector" d="M17.46 20.5C17.31 20.5 17.15 20.45 17.02 20.35L11 15.98L4.97 20.35C4.84 20.45 4.68 20.5 4.52 20.5C4.36 20.5 4.21 20.45 4.08 20.35C3.95 20.26 3.86 20.12 3.81 19.97C3.76 19.82 3.76 19.66 3.82 19.51L6.17 12.54L0.07 8.36C-0.06 8.27 -0.16 8.14 -0.21 7.99C-0.26 7.84 -0.27 7.68 -0.22 7.52C-0.17 7.37 -0.08 7.24 0.05 7.14C0.18 7.05 0.33 7 0.5 7L8.01 7L10.28 0.01C10.33 -0.14 10.43 -0.27 10.55 -0.36C10.68 -0.46 10.84 -0.51 11 -0.51C11.15 -0.51 11.31 -0.46 11.44 -0.36C11.56 -0.27 11.66 -0.14 11.71 0.01L13.98 7L21.5 7C21.66 7 21.81 7.05 21.94 7.14C22.07 7.24 22.16 7.37 22.21 7.53C22.26 7.68 22.26 7.84 22.2 7.99C22.15 8.15 22.05 8.28 21.92 8.37L15.82 12.54L18.17 19.51C18.21 19.62 18.22 19.74 18.2 19.86C18.19 19.97 18.14 20.09 18.07 20.18C18 20.28 17.91 20.36 17.81 20.41C17.7 20.47 17.58 20.49 17.46 20.5Z" fill="hsl(0, 0%, 80%)" fill-opacity="1.000000" fill-rule="nonzero"/>
</svg>
